<svg width="34" height="33" viewBox="0 0 34 33" fill="none" xmlns="http://www.w3.org/2000/svg"><path d="M24.597 3.071C24.334 1.82 23.193.873 21.829.873a.557.557 0 00-.565.55c0 .303.253.549.565.549.934 0 1.695.74 1.695 1.649 0 .91-.76 1.649-1.695 1.649a.557.557 0 00-.565.55c0 .304.253.55.565.55 1.364 0 2.505-.947 2.768-2.2h7.401v4.948H1.491V4.17h9.604a.557.557 0 00.565-.55.557.557 0 00-.565-.55H10.07a1.69 1.69 0 011.591-1.1c.934 0 1.695.74 1.695 1.65 0 .91-.76 1.649-1.695 1.649a.557.557 0 00-.565.55c0 .304.253.55.565.55 1.558 0 2.825-1.234 2.825-2.75 0-1.515-1.267-2.747-2.825-2.747-1.364 0-2.505.946-2.768 2.198H.362v29.133h32.766V3.07h-8.531zm7.401 28.034H1.491V10.216h30.507v20.888z" fill="#fff"/><path d="M15.05 1.972c.934 0 1.695.74 1.695 1.649 0 .91-.76 1.649-1.695 1.649a.557.557 0 00-.565.55c0 .304.253.55.565.55 1.557 0 2.824-1.234 2.824-2.75 0-1.515-1.267-2.747-2.824-2.747a.557.557 0 00-.565.55c0 .303.253.549.565.549zm3.39 0c.934 0 1.694.74 1.694 1.649 0 .91-.76 1.649-1.695 1.649a.557.557 0 00-.564.55c0 .304.253.55.564.55 1.558 0 2.825-1.234 2.825-2.75 0-1.515-1.267-2.747-2.825-2.747a.557.557 0 00-.564.55c0 .303.253.549.564.549zM5.446 14.614h12.429a.557.557 0 00.564-.55.557.557 0 00-.564-.55H5.445a.557.557 0 00-.564.55c0 .304.253.55.565.55zm22.597 7.696H19.57a.557.557 0 00-.565.55c0 .303.253.55.565.55h8.474a.557.557 0 00.565-.55.557.557 0 00-.565-.55zM5.446 19.012h5.65a.557.557 0 00.564-.55.557.557 0 00-.565-.55h-5.65a.557.557 0 00-.564.55c0 .304.253.55.565.55zm22.597 7.695h-5.649a.557.557 0 00-.565.55c0 .304.253.55.565.55h5.65a.557.557 0 00.564-.55.557.557 0 00-.565-.55zM16.18 18.462c0 .304.253.55.565.55h8.474a.557.557 0 00.565-.55.557.557 0 00-.565-.55h-8.474a.557.557 0 00-.565.55zm-1.859.39a.57.57 0 00.164-.39.568.568 0 00-.164-.39.604.604 0 00-.802 0 .568.568 0 00-.164.39.57.57 0 00.164.39.58.58 0 00.4.16.58.58 0 00.402-.16zM7.706 22.86c0 .303.253.55.564.55h8.475a.557.557 0 00.564-.55.557.557 0 00-.564-.55H8.27a.557.557 0 00-.564.55zm-2.26.55a.597.597 0 00.4-.16.57.57 0 00.165-.39.545.545 0 00-.164-.385.598.598 0 00-.802-.006.568.568 0 00-.164.39.57.57 0 00.164.39c.107.1.248.16.4.16zm22.597-4.398a.58.58 0 00.402-.16.546.546 0 000-.78.604.604 0 00-.803 0 .568.568 0 00-.164.39.57.57 0 00.164.39.58.58 0 00.401.16zm-8.473 7.695H5.445a.557.557 0 00-.565.55c0 .304.253.55.565.55h14.123a.557.557 0 00.565-.55.557.557 0 00-.565-.55z" fill="#fff"/></svg>