<svg width="33" height="33" viewBox="0 0 33 33" fill="none" xmlns="http://www.w3.org/2000/svg"><path fill-rule="evenodd" clip-rule="evenodd" d="M3.25 1.254a.39.39 0 01.398-.381h28.663a.39.39 0 01.399.381v27.623a.39.39 0 01-.398.381.39.39 0 01-.399-.381V1.637H3.648a.39.39 0 01-.398-.383z" fill="#fff" stroke="#fff" stroke-width=".5"/><path d="M3.668 29.434h.125V5.551l1.626 1.625a.52.52 0 10.735-.735L3.641 3.928a.52.52 0 00-.736 0L.392 6.44a.52.52 0 10.735.735L2.753 5.55v23.883h.915z" fill="#fff" stroke="#fff" stroke-width=".25"/><path d="M2.752 29.704v.125H26.76l-1.634 1.626a.519.519 0 000 .736.523.523 0 00.738 0l2.526-2.514a.518.518 0 000-.736l-2.526-2.513a.524.524 0 00-.738 0 .519.519 0 000 .736l1.634 1.625H2.752v.915z" fill="#fff" stroke="#fff" stroke-width=".25"/><path fill-rule="evenodd" clip-rule="evenodd" d="M14.162.988a.395.395 0 010 .559l-4.74 4.74a.395.395 0 01-.558-.56l4.74-4.739a.395.395 0 01.558 0zm18.3 18.827a.395.395 0 010 .558l-4.344 4.345a.395.395 0 11-.559-.559l4.345-4.344a.395.395 0 01.558 0zM20.085.986a.395.395 0 01.003.559L9.82 11.945a.395.395 0 01-.562-.554L19.526.99a.395.395 0 01.559-.004zm12.509 12.245a.395.395 0 010 .559L22.588 23.796a.395.395 0 01-.558-.559l10.005-10.006a.395.395 0 01.559 0zM26.408 1.122a.395.395 0 01-.004.558L9.947 17.873a.395.395 0 11-.554-.563L25.85 1.117a.395.395 0 01.558.005zm6.186 5.922a.395.395 0 010 .559L16.006 24.19a.395.395 0 11-.559-.559L32.035 7.044a.395.395 0 01.559 0zM32.33 1.12a.395.395 0 010 .558L9.687 24.322a.395.395 0 01-.558-.558L31.772 1.119a.395.395 0 01.559 0z" fill="#fff" stroke="#fff" stroke-width=".5" stroke-linecap="round" stroke-linejoin="round"/></svg>