<svg width="114" height="29" viewBox="0 0 114 29" fill="none" xmlns="http://www.w3.org/2000/svg"><path d="M64.892 22.053c-.746.7-.746 1.867 0 2.613.374.374.84.56 1.307.56.467 0 .933-.186 1.307-.56.746-.7.746-1.866 0-2.613-.7-.747-1.867-.747-2.614 0zm1.96 2.007a.902.902 0 01-1.306 0 .902.902 0 010-1.307.922.922 0 01.653-.28.92.92 0 01.654.28.902.902 0 010 1.307z" fill="#E3B873"/><rect y="13.213" width="32" height="1.543" rx=".772" fill="#E3B873"/><rect x="82.001" y="13.213" width="32" height="1.543" rx=".772" fill="#E3B873"/><path d="M70.68 22.613l-8.4-8.4 3.313-3.313 1.96-1.96L70.4 6.092c.793-.793.793-2.1 0-2.893L68.02.82a2.048 2.048 0 00-1.447-.607c-.56 0-1.073.233-1.447.607L62.28 3.666l-1.96 1.96-3.314 3.314L48.7.633c-.514-.513-1.447-.513-1.96 0l-3.314 3.313c-.56.514-.56 1.4 0 1.96l.98.98 2.66 2.66 2.614 2.614 2.053 2.053-7.491 7.491c-.14.062-.215.188-.256.349l-.98 5.6c0 .187.047.327.14.42.094.093.187.14.327.14h.093l5.384-.995c.037.01.078.015.123.015.14 0 .28-.047.327-.14l7.606-7.607.607.607L58.92 21.4l6.486 6.486c.234.234.514.327.794.327s.56-.093.746-.327l3.734-3.733c.42-.42.42-1.12 0-1.54zm-21.607 3.453l-1.633-1.633 15.516-15.47 1.61 1.61-15.493 15.493zM65.78 1.473c.42-.42 1.166-.42 1.586 0l2.38 2.38c.42.42.42 1.167 0 1.587l-2.52 2.52-3.966-3.967 2.52-2.52zm-3.174 3.173L64.59 6.63l1.983 1.983-1.307 1.307L61.3 5.953l1.306-1.307zM51.99 13.163l1.003-1.004a.451.451 0 000-.653.451.451 0 00-.653 0l-1.004 1.003-.676-.676 1.633-1.633a.451.451 0 000-.654.451.451 0 00-.653 0l-1.634 1.634-.653-.654.98-.98a.451.451 0 000-.653.451.451 0 00-.653 0l-.98.98-.654-.654 1.634-1.633a.451.451 0 000-.653.451.451 0 00-.654 0l-1.633 1.633-.7-.7.98-.98a.451.451 0 000-.653.451.451 0 00-.653 0l-.98.98-.654-.653 1.634-1.634a.451.451 0 000-.653.451.451 0 00-.654 0l-1.633 1.633-.653-.653a.451.451 0 010-.653l3.313-3.314a.423.423 0 01.327-.14c.093 0 .233.047.326.14l8.307 8.307-3.967 3.966-.396-.396zm8.656-6.51l1.633 1.633-15.516 15.47-1.61-1.61L60.646 6.653zM44.78 23.08l1.53 1.53a.484.484 0 00.103.15l1.687 1.686-4.02.694.7-4.06zm25.246.42l-3.733 3.733c-.047.046-.187.046-.233 0l-4.83-4.83 1.656-1.657a.451.451 0 000-.653.451.451 0 00-.653 0l-1.657 1.657-.676-.677.98-.98a.451.451 0 000-.654.451.451 0 00-.654 0l-.98.98-.653-.653 1.633-1.633a.451.451 0 000-.653.451.451 0 00-.653 0l-1.633 1.633-.28-.28 3.966-3.967 8.4 8.4c.047.047.047.187 0 .234z" fill="#E3B873"/></svg>